# xmcd CD database file
#
# Track frame offsets:
#	150
#	25350
#	53462
#
# Disc length: 1052 seconds
#
# Revision: 0
# Processed by: cddbd v1.5.1PL2 Copyright (c) Steve Scherf et al.
# Submitted via: CDex 1.51
#
DISCID=1a041a03
DTITLE=SOUL'd OUT - Catwalk
DYEAR=2006
DGENRE=Hip-Hop
TTITLE0=Catwalk
TTITLE1=Catwalk 〜Magdarise Remix〜
TTITLE2=Catwalk 〜Deckstream Remix〜
EXTD=YEAR: 2006
EXTT0=
EXTT1=
EXTT2=
PLAYORDER=
